<?xml version="1.0" standalone="no"?>
<!DOCTYPE svg PUBLIC "-//W3C//DTD SVG 20010904//EN"
 "http://www.w3.org/TR/2001/REC-SVG-20010904/DTD/svg10.dtd">
<svg version="1.0" xmlns="http://www.w3.org/2000/svg"
 width="1000.000000pt" height="1000.000000pt" viewBox="0 0 1000.000000 1000.000000"
 preserveAspectRatio="xMidYMid meet">
<metadata>
Created by potrace 1.11, written by Peter Selinger 2001-2013
</metadata>
<g transform="translate(0.000000,1000.000000) scale(0.100000,-0.100000)"
fill="#000000" stroke="none">
<path d="M7752 9059 c-193 -32 -377 -143 -569 -343 -199 -206 -296 -394 -310
-597 -16 -235 84 -449 321 -684 194 -192 379 -309 567 -357 70 -17 103 -20
204 -16 174 8 287 51 454 176 151 112 262 243 338 397 l44 90 -3 325 -3 325
-42 88 c-92 192 -224 345 -392 455 -190 125 -406 175 -609 141z m227 -274
c268 -56 495 -268 593 -552 106 -306 -18 -627 -293 -762 -195 -96 -456 -117
-679 -54 -168 47 -334 180 -403 323 -143 293 -78 659 153 874 165 152 407 218
629 171z"/>
<path d="M3770 8515 c-8 -2 -55 -9 -105 -15 -231 -31 -406 -115 -469 -223 -62
-107 -73 -273 -23 -377 65 -137 237 -250 472 -309 194 -48 297 -59 678 -71
180 -6 378 -17 440 -25 388 -51 556 -178 590 -446 l11 -92 -54 -50 c-96 -86
-336 -276 -630 -496 -438 -328 -616 -488 -741 -664 -64 -89 -132 -231 -153
-318 -18 -75 -21 -233 -5 -311 50 -247 177 -481 498 -913 290 -391 380 -540
389 -641 6 -72 -16 -109 -82 -140 -95 -43 -214 -54 -711 -64 -313 -6 -495 -14
-570 -25 -359 -50 -488 -157 -472 -389 12 -177 74 -334 162 -415 106 -96 212
-119 615 -131 391 -12 506 -30 569 -89 87 -81 -15 -214 -373 -489 -174 -133
-280 -232 -356 -333 -172 -228 -204 -448 -98 -653 44 -83 185 -223 268 -265
218 -108 412 12 1520 938 699 584 940 804 1066 971 114 150 154 254 154 402 0
174 -46 318 -245 758 -216 476 -289 664 -340 875 -55 225 -45 329 46 465 100
149 213 239 302 240 108 0 225 -136 310 -361 40 -105 66 -149 126 -212 156
-165 425 -280 816 -349 115 -20 163 -23 405 -23 214 0 296 4 370 17 297 53
494 156 603 313 l47 69 0 136 c0 135 0 138 -28 176 -94 129 -281 222 -547 271
-60 11 -190 16 -512 20 l-431 5 -5 586 c-3 487 -7 604 -21 687 -63 383 -212
602 -639 943 -137 109 -414 309 -632 457 -427 289 -1007 484 -1637 550 -127
13 -527 20 -578 10z m645 -205 c406 -27 752 -87 932 -162 88 -36 203 -138 248
-219 26 -47 30 -65 30 -130 0 -72 -2 -80 -37 -130 -72 -105 -138 -115 -237
-35 -107 88 -226 129 -481 166 -171 25 -376 40 -555 40 -203 0 -462 18 -603
40 -214 35 -336 87 -376 162 -18 32 -18 40 -7 78 33 112 151 166 411 189 139
12 491 13 675 1z m244 -2310 c122 -62 246 -284 686 -1230 594 -1276 705 -1559
707 -1800 1 -111 -20 -176 -76 -233 -101 -104 -278 -147 -693 -167 -259 -13
-1180 -12 -1498 0 -556 23 -665 73 -665 306 0 239 88 291 530 313 111 6 408
11 659 11 606 1 726 13 794 81 26 27 29 35 25 78 -11 110 -73 206 -508 786
-470 626 -604 836 -651 1024 -28 110 -21 180 25 276 49 103 105 171 293 356
218 216 278 248 372 199z m2986 -815 c307 -40 678 -129 830 -199 63 -29 125
-82 125 -106 0 -24 -27 -62 -59 -84 -131 -90 -439 -143 -896 -153 -433 -9
-766 16 -877 65 -83 36 -128 118 -128 232 0 140 144 228 423 260 104 12 442 3
582 -15z m-2190 -2803 c41 -24 67 -77 61 -125 -16 -131 -363 -472 -871 -854
-425 -321 -808 -543 -933 -543 -25 0 -65 13 -110 36 -278 138 -156 357 478
855 478 375 907 608 1205 653 51 7 138 -4 170 -22z"/>
<path d="M1223 6673 c-19 -4 -23 -11 -23 -38 0 -31 3 -35 38 -42 20 -4 136 -8
257 -7 184 1 231 4 289 20 114 31 101 48 -48 64 -89 9 -469 12 -513 3z"/>
<path d="M3726 6669 c-118 -12 -128 -36 -23 -59 172 -37 507 -39 641 -3 71 18
93 36 58 47 -77 25 -498 34 -676 15z"/>
<path d="M2286 5549 c-118 -12 -128 -36 -23 -59 172 -37 507 -39 641 -3 70 18
91 35 60 47 -62 24 -502 34 -678 15z"/>
<path d="M1395 4429 c-99 -4 -183 -7 -187 -8 -5 0 -8 -12 -8 -25 0 -29 7 -31
173 -47 145 -13 537 -7 634 10 82 15 119 29 107 41 -27 27 -390 41 -719 29z"/>
</g>
</svg>
